HIERARCHY
ROOT Hips
{
 OFFSET 0.000000 0.000000 0.000000
 CHANNELS 6 Xposition Yposition Zposition Yrotation Xrotation Zrotation
 JOINT Chest
 {
  OFFSET 0.000000 10.366939 -0.000175
  CHANNELS 3 Yrotation Xrotation Zrotation
  JOINT Chest2
  {
   OFFSET 0.000000 11.433790 0.000318
   CHANNELS 3 Yrotation Xrotation Zrotation
   JOINT Chest3
   {
    OFFSET 0.000000 10.331133 0.000000
    CHANNELS 3 Yrotation Xrotation Zrotation
    JOINT Chest4
    {
     OFFSET 0.000000 10.331133 0.000000
     CHANNELS 3 Yrotation Xrotation Zrotation
     JOINT Neck
     {
      OFFSET 0.000000 14.530095 0.000000
      CHANNELS 3 Yrotation Xrotation Zrotation
      JOINT Head
      {
       OFFSET 0.000000 9.616255 0.000757
       CHANNELS 3 Yrotation Xrotation Zrotation
       End Site
       {
        OFFSET 0.000000 18.398191 0.000395
       }
      }
     }
     JOINT RightCollar
     {
      OFFSET -3.159467 8.107572 0.000000
      CHANNELS 3 Yrotation Xrotation Zrotation
      JOINT RightShoulder
      {
       OFFSET -14.759419 0.000000 0.000000
       CHANNELS 3 Yrotation Xrotation Zrotation
       JOINT RightElbow
       {
        OFFSET 0.000000 -31.561777 0.000000
        CHANNELS 3 Yrotation Xrotation Zrotation
        JOINT RightWrist
        {
         OFFSET 0.000000 -25.811607 0.000000
         CHANNELS 3 Yrotation Xrotation Zrotation
         End Site
         {
          OFFSET 0.000000 -19.296333 0.000000
         }
        }
       }
      }
     }
     JOINT LeftCollar
     {
      OFFSET 3.159467 8.107572 0.000000
      CHANNELS 3 Yrotation Xrotation Zrotation
      JOINT LeftShoulder
      {
       OFFSET 14.759419 0.000000 0.000000
       CHANNELS 3 Yrotation Xrotation Zrotation
       JOINT LeftElbow
       {
        OFFSET 0.000000 -31.561777 0.000000
        CHANNELS 3 Yrotation Xrotation Zrotation
        JOINT LeftWrist
        {
         OFFSET 0.000000 -25.811607 0.000000
         CHANNELS 3 Yrotation Xrotation Zrotation
         End Site
         {
          OFFSET 0.000000 -19.296333 0.000000
         }
        }
       }
      }
     }
    }
   }
  }
 }
 JOINT RightHip
 {
  OFFSET -8.420485 0.000859 0.000088
  CHANNELS 3 Yrotation Xrotation Zrotation
  JOINT RightKnee
  {
   OFFSET 0.000000 -43.611855 -0.000083
   CHANNELS 3 Yrotation Xrotation Zrotation
   JOINT RightAnkle
   {
    OFFSET 0.000000 -42.630478 -0.000140
    CHANNELS 3 Yrotation Xrotation Zrotation
    JOINT RightToe
    {
     OFFSET 0.000000 -7.539428 17.119853
     CHANNELS 3 Yrotation Xrotation Zrotation
     End Site
     {
      OFFSET 0.000000 -1.595212 6.940629
     }
    }
   }
  }
 }
 JOINT LeftHip
 {
  OFFSET 8.420485 0.000859 0.000088
  CHANNELS 3 Yrotation Xrotation Zrotation
  JOINT LeftKnee
  {
   OFFSET 0.000000 -43.611855 -0.000083
   CHANNELS 3 Yrotation Xrotation Zrotation
   JOINT LeftAnkle
   {
    OFFSET 0.000000 -42.630478 -0.000140
    CHANNELS 3 Yrotation Xrotation Zrotation
    JOINT LeftToe
    {
     OFFSET 0.000000 -7.539428 17.119853
     CHANNELS 3 Yrotation Xrotation Zrotation
     End Site
     {
      OFFSET 0.000000 -1.595212 6.940629
     }
    }
   }
  }
 }
}
MOTION
Frames: 15
Frame Time: 0.008333
407.519096 48.699236 121.992573 -77.757214 -25.245656 1.300167 -2.108846 15.610815 -0.978126 -0.892534 6.954902 -0.326726 -0.892534 6.954902 -0.326726 -0.664842 5.216668 -0.234541 0.403483 10.648568 0.365089 0.614726 -16.410402 0.523112 0.825347 1.200231 11.399059 10.524937 -30.052309 -27.313452 58.477309 -42.591375 -25.837302 19.400640 -8.870784 -1.020141 1.264694 2.781800 -8.062756 0.862411 -32.154627 14.399885 -52.668308 -29.583720 14.848034 -16.334900 0.296325 -12.128984 -8.401099 -67.953977 -17.975375 164.047276 64.538109 158.032906 4.659830 -19.735989 -0.697646 -0.005108 -0.029066 0.018258 -2.988921 -72.071825 27.724921 -148.365293 62.629945 -145.479319 -1.537824 -13.008609 -3.726567 -0.009930 0.313785 -0.466548
407.509166 48.703602 121.986967 -77.773188 -25.150762 1.303372 -2.057320 15.576976 -0.996132 -0.871690 6.941888 -0.336774 -0.871690 6.941888 -0.336774 -0.649123 5.206910 -0.242327 0.400367 10.630624 0.375188 0.604119 -16.443739 0.544023 0.814193 1.267778 11.419717 10.550595 -30.013524 -27.392552 58.345754 -42.665096 -25.828969 19.473757 -8.845020 -1.045518 1.245223 2.851743 -8.068377 0.947596 -32.224160 14.337307 -52.480855 -29.638878 14.800747 -16.493265 0.260687 -11.981384 -8.456749 -68.042513 -17.897621 164.043692 64.532210 158.034027 4.618776 -19.754207 -0.711187 -0.002697 -0.032731 0.024171 -2.847214 -72.146364 27.602439 -148.692198 62.762257 -145.780913 -1.534031 -12.994827 -3.678729 -0.017812 0.248964 -0.411078
407.499746 48.709173 121.977456 -77.794436 -25.051638 1.295268 -1.989074 15.549760 -0.998748 -0.848686 6.929163 -0.345472 -0.848686 6.929163 -0.345472 -0.631803 5.197365 -0.249124 0.391705 10.614315 0.382462 0.584060 -16.474031 0.561993 0.782375 1.341476 11.432772 10.571769 -29.973112 -27.449550 58.257645 -42.734666 -25.858773 19.522083 -8.833299 -1.078113 1.218465 2.918001 -8.075032 1.039697 -32.282164 14.273840 -52.284316 -29.732954 14.748347 -16.646140 0.227109 -11.847253 -8.541219 -68.129597 -17.773848 164.035066 64.529688 158.031731 4.593610 -19.766863 -0.736827 0.005408 -0.040540 0.034982 -2.753731 -72.224090 27.540842 -148.998145 62.852699 -146.040204 -1.599473 -13.013421 -3.654119 -0.021575 0.196620 -0.349022
407.492054 48.712689 121.967904 -77.809065 -24.943788 1.286174 -1.934028 15.517779 -1.001879 -0.829126 6.913837 -0.355954 -0.829126 6.913837 -0.355954 -0.617043 5.185873 -0.257220 0.386117 10.598463 0.389125 0.570215 -16.503472 0.577399 0.767175 1.406802 11.440189 10.568700 -29.932775 -27.492513 58.199898 -42.806761 -25.912652 19.560802 -8.824518 -1.110045 1.212967 2.974149 -8.080375 1.118642 -32.321913 14.215621 -52.084599 -29.837416 14.677155 -16.784684 0.197811 -11.709414 -8.641315 -68.228667 -17.646039 164.043776 64.527465 158.039014 4.584676 -19.782336 -0.761301 0.007296 -0.045970 0.041221 -2.709784 -72.314763 27.526988 -149.197507 62.892687 -146.198700 -1.657959 -13.044851 -3.651642 -0.013333 0.155148 -0.283787
407.485675 48.715223 121.959244 -77.811321 -24.811070 1.276696 -1.887092 15.480355 -1.011753 -0.809618 6.896732 -0.368245 -0.809618 6.896732 -0.368245 -0.602305 5.173049 -0.266674 0.383127 10.582688 0.399177 0.559852 -16.532773 0.598185 0.751020 1.467764 11.446559 10.545158 -29.889945 -27.510707 58.163650 -42.874649 -25.982940 19.592700 -8.825423 -1.153729 1.211656 3.019626 -8.079964 1.178264 -32.349578 14.175167 -51.869598 -29.979059 14.600487 -16.930515 0.183498 -11.614897 -8.747942 -68.348007 -17.523096 164.045282 64.527207 158.040685 4.562916 -19.806506 -0.779848 0.006765 -0.044897 0.045111 -2.741252 -72.424836 27.569972 -149.282917 62.899967 -146.273085 -1.642400 -13.088973 -3.666628 -0.004894 0.131102 -0.225523
407.481052 48.715827 121.948859 -77.813575 -24.673681 1.266503 -1.840120 15.433259 -1.021037 -0.789640 6.876652 -0.379153 -0.789640 6.876652 -0.379153 -0.587233 5.157991 -0.275100 0.374844 10.568366 0.408738 0.539466 -16.559366 0.620435 0.731258 1.532121 11.442669 10.504338 -29.844629 -27.502790 58.161962 -42.935622 -26.074496 19.610523 -8.831421 -1.209684 1.211786 3.055373 -8.081605 1.220677 -32.355163 14.150188 -51.665825 -30.135124 14.514123 -17.071324 0.182094 -11.546324 -8.863484 -68.477528 -17.395741 164.050293 64.526007 158.047747 4.563556 -19.823553 -0.811931 0.007896 -0.046009 0.049440 -2.832870 -72.542368 27.669684 -149.293012 62.882641 -146.295941 -1.626718 -13.134589 -3.681886 0.000628 0.113800 -0.170908
407.476441 48.717868 121.938685 -77.815660 -24.527787 1.261563 -1.799759 15.384890 -1.039895 -0.771029 6.857304 -0.392382 -0.771029 6.857304 -0.392382 -0.573158 5.143484 -0.285247 0.368769 10.557410 0.418408 0.523299 -16.579705 0.641901 0.732148 1.599748 11.433434 10.430429 -29.810008 -27.475379 58.193930 -42.996779 -26.186490 19.614056 -8.846883 -1.259961 1.221188 3.090766 -8.081935 1.231525 -32.357795 14.146411 -51.441494 -30.311022 14.427791 -17.234526 0.190182 -11.526002 -8.968244 -68.611023 -17.275312 164.051145 64.528083 158.048975 4.559127 -19.844886 -0.835988 0.007537 -0.044104 0.050711 -2.991915 -72.657961 27.841023 -149.228739 62.864510 -146.280856 -1.616304 -13.164091 -3.695239 0.009765 0.096279 -0.119467
407.459035 48.385515 121.877789 -77.778860 -24.394482 0.913484 -1.707852 15.346409 -0.723055 -0.753468 6.838726 -0.403788 -0.753468 6.838726 -0.403788 -0.559891 5.129554 -0.294014 0.363126 10.547026 0.426316 0.508765 -16.598980 0.659766 0.730582 1.654552 11.419296 10.348103 -29.765341 -27.422176 58.243061 -43.037062 -26.306857 19.600276 -8.857535 -1.312860 1.235199 3.110948 -8.088682 1.223827 -32.344307 14.166948 -51.242475 -30.494911 14.331149 -17.371338 0.214029 -11.526579 -9.896201 -68.725520 -16.295108 164.111165 64.466447 158.112986 4.647608 -20.121325 -0.844872 -0.097937 0.194312 0.003103 -4.200454 -72.693859 29.090295 -149.044240 62.904662 -146.149160 -1.476755 -12.670568 -3.672187 -0.146000 -0.400079 -0.148282
407.437447 48.091674 121.822690 -77.807626 -24.274307 0.633994 -1.562628 15.329122 -0.450487 -0.734307 6.820191 -0.417309 -0.734307 6.820191 -0.417309 -0.545401 5.115656 -0.304382 0.355160 10.543164 0.435522 0.489157 -16.606135 0.681203 0.725840 1.715757 11.407379 10.252088 -29.730293 -27.360944 58.308147 -43.083255 -26.439597 19.583652 -8.869057 -1.361979 1.238918 3.132013 -8.090829 1.189655 -32.334273 14.206863 -51.062566 -30.694205 14.257642 -17.497045 0.249048 -11.563732 -10.659844 -68.817600 -15.422152 164.156003 64.412859 158.159410 4.762701 -20.425966 -0.854371 -0.208636 0.461664 -0.048535 -5.244929 -72.720364 30.228744 -148.879374 62.924648 -146.057418 -1.327709 -12.340038 -3.625888 -0.298618 -0.739807 -0.189630
407.418140 47.885650 121.785495 -77.896936 -24.173759 0.476002 -1.390637 15.312692 -0.274920 -0.716782 6.799931 -0.431843 -0.716782 6.799931 -0.431843 -0.532129 5.100465 -0.315493 0.347902 10.543570 0.443453 0.471507 -16.605362 0.699850 0.722159 1.769169 11.400144 10.134724 -29.689484 -27.288232 58.392586 -43.117031 -26.564968 19.560650 -8.882462 -1.417555 1.246279 3.149016 -8.096683 1.141093 -32.314716 14.261654 -50.934353 -30.877585 14.192621 -17.578168 0.271937 -11.594417 -11.114541 -68.902045 -14.828163 164.150931 64.360985 158.163909 4.853190 -20.650926 -0.879869 -0.278484 0.657455 -0.083058 -5.947236 -72.747536 31.067308 -148.764332 62.918256 -146.027029 -1.204468 -12.204678 -3.558631 -0.434107 -0.898285 -0.235460
407.404617 47.727623 121.766914 -77.933475 -24.041035 0.397096 -1.292032 15.274391 -0.206403 -0.699231 6.779710 -0.446725 -0.699231 6.779710 -0.446725 -0.518833 5.085304 -0.326863 0.341535 10.548168 0.447099 0.457541 -16.596803 0.709797 0.726703 1.825833 11.389591 9.993652 -29.654181 -27.196582 58.494003 -43.150529 -26.710033 19.549263 -8.893362 -1.463903 1.250130 3.162536 -8.098402 1.081055 -32.293736 14.325687 -50.836908 -31.083093 14.150742 -17.634005 0.297104 -11.626383 -11.370589 -69.025969 -14.496166 164.132346 64.323035 158.157774 4.843046 -20.822453 -0.886479 -0.303579 0.803186 -0.096324 -6.392685 -72.820154 31.591544 -148.676039 62.908412 -146.026646 -1.142122 -12.202933 -3.498665 -0.497163 -0.929353 -0.258231
407.390691 47.603571 121.756375 -77.968489 -23.925536 0.350997 -1.210347 15.232634 -0.172513 -0.682664 6.759940 -0.459381 -0.682664 6.759940 -0.459381 -0.506301 5.070478 -0.336553 0.332543 10.555507 0.447595 0.439939 -16.583148 0.714838 0.726319 1.877687 11.376651 9.855747 -29.612409 -27.109584 58.590395 -43.184101 -26.841737 19.524099 -8.899240 -1.505677 1.254461 3.181376 -8.108561 1.025250 -32.271981 14.395732 -50.786645 -31.256210 14.100978 -17.621601 0.278437 -11.611161 -11.555973 -69.138293 -14.251070 164.128967 64.292046 158.161820 4.819575 -20.951757 -0.896750 -0.312160 0.910423 -0.101386 -6.701323 -72.879965 31.973597 -148.638403 62.908066 -146.064897 -1.118691 -12.251584 -3.439483 -0.541187 -0.916101 -0.276067
407.374804 47.503166 121.740873 -78.083843 -23.792886 0.297015 -1.042499 15.196694 -0.098053 -0.667438 6.740346 -0.473314 -0.667438 6.740346 -0.473314 -0.494758 5.055786 -0.347184 0.326869 10.565329 0.446389 0.429538 -16.564891 0.715074 0.727538 1.924696 11.369654 9.716481 -29.583466 -27.026477 58.687707 -43.217514 -26.968757 19.513542 -8.907710 -1.540193 1.269440 3.180910 -8.123691 0.948768 -32.238541 14.481864 -50.759148 -31.456889 14.078760 -17.542918 0.266333 -11.596587 -11.767814 -69.243546 -13.896275 164.109079 64.271498 158.153888 4.826265 -21.096491 -0.897434 -0.355746 1.032386 -0.123416 -7.014763 -72.957705 32.440796 -148.655070 62.917911 -146.129472 -1.090782 -12.302110 -3.370267 -0.622375 -0.903340 -0.312793
407.362783 47.420186 121.740085 -78.106959 -23.659317 0.280579 -0.979114 15.141729 -0.099469 -0.654078 6.718139 -0.485713 -0.654078 6.718139 -0.485713 -0.484634 5.039134 -0.356647 0.319425 10.577885 0.444716 0.415937 -16.541553 0.715205 0.729653 1.973222 11.361495 9.577151 -29.548629 -26.945979 58.771809 -43.244441 -27.082634 19.512608 -8.909625 -1.575528 1.280248 3.183800 -8.135060 0.897940 -32.194845 14.550118 -50.794859 -31.610133 14.066747 -17.389327 0.202815 -11.544974 -11.863744 -69.372307 -13.766063 164.096066 64.250175 158.150731 4.805769 -21.180854 -0.899092 -0.363492 1.099303 -0.129187 -7.124931 -73.054585 32.607032 -148.705535 62.937063 -146.208136 -1.111131 -12.382204 -3.327269 -0.633755 -0.859909 -0.318775
407.350834 47.353621 121.738850 -78.123176 -23.519183 0.263777 -0.917413 15.087911 -0.109260 -0.637785 6.698704 -0.499104 -0.637785 6.698704 -0.499104 -0.472300 5.024559 -0.366882 0.310407 10.595842 0.443774 0.398977 -16.508178 0.717455 0.733476 2.024799 11.363710 9.425899 -29.526452 -26.859589 58.856272 -43.267866 -27.198432 19.518168 -8.919231 -1.603189 1.278297 3.180165 -8.134405 0.863049 -32.148834 14.610480 -50.853314 -31.785420 14.090750 -17.220592 0.147321 -11.498605 -11.943535 -69.497678 -13.653118 164.092081 64.235740 158.158520 4.846807 -21.249872 -0.923373 -0.356988 1.148841 -0.126769 -7.184435 -73.164556 32.717036 -148.723308 62.947066 -146.234986 -1.136644 -12.459395 -3.279876 -0.640109 -0.818294 -0.327935
